<svg xmlns="http://www.w3.org/2000/svg" width="512" height="512" viewBox="0 0 512 512">
  <defs>
    <linearGradient id="bg" x1="0" y1="0" x2="1" y2="1">
      <stop offset="0%" stop-color="#059669"/>
      <stop offset="100%" stop-color="#0D9488"/>
    </linearGradient>
  </defs>
  <rect width="512" height="512" rx="96" fill="url(#bg)"/>
  <circle cx="256" cy="256" r="160" fill="rgba(255,255,255,0.12)"/>
  <g fill="white">
    <path d="M200 180h32v152h-32z" rx="8"/>
    <path d="M280 180h32v152h-32z" rx="8"/>
    <path d="M180 220l-24-12 16-32 24 12z"/>
    <path d="M332 220l24-12-16-32-24 12z"/>
    <path d="M180 292l-24 12 16 32 24-12z"/>
    <path d="M332 292l24 12-16 32-24-12z"/>
  </g>
  <circle cx="256" cy="256" r="40" fill="rgba(255,255,255,0.15)"/>
  <text x="256" y="270" font-family="system-ui, sans-serif" font-size="36" font-weight="800" fill="white" text-anchor="middle">FN</text>
</svg>
